Coordinates
version=1
nRows=43
nColumns=12
inDegrees=yes

Units are S.I. units (second, meters, Newtons, ...)
Angles are in degrees

endheader
time	SC_y	SC_z	SC_x	AC_y	AC_z	AC_x	GH_y	GH_z	GH_yy	EL_x	PS_y
       0.0              -25.89          39.41          77.85          43.39         -6.821          9.697         -168.0          89.66          38.28          8.252          61.84
   0.02011               -25.9          39.41          77.85          43.39         -6.819          9.697         -168.0          89.66           38.3          8.269          61.86
   0.04022               -25.9          39.41          77.85           43.4         -6.817          9.697         -168.0          89.66          38.32          8.287          61.87
   0.06033              -25.91          39.41          77.85           43.4         -6.815          9.697         -167.9          89.66          38.34          8.306          61.88
   0.08044              -25.91           39.4          77.85           43.4         -6.812          9.697         -167.9          89.66          38.37          8.327           61.9
    0.1005              -25.91           39.4          77.85           43.4          -6.81          9.697         -167.9          89.65          38.39          8.348          61.91
    0.1207              -25.92           39.4          77.85          43.41         -6.807          9.697         -167.8          89.65          38.42          8.372          61.93
    0.1408              -25.92           39.4          77.85          43.41         -6.804          9.697         -167.8          89.65          38.45          8.397          61.95
    0.1609              -25.93           39.4          77.85          43.41         -6.801          9.697         -167.7          89.65          38.48          8.423          61.97
     0.181              -25.94           39.4          77.85          43.41         -6.797          9.697         -167.7          89.64          38.51          8.452          61.99
    0.2011              -25.94           39.4          77.85          43.42         -6.794          9.697         -167.6          89.64          38.55          8.482          62.01
    0.2212              -25.95          39.39          77.85          43.42          -6.79          9.697         -167.5          89.64          38.59          8.515          62.04
    0.2413              -25.96          39.39          77.85          43.42         -6.786          9.697         -167.5          89.63          38.63          8.551          62.06
    0.2614              -25.97          39.39          77.84          43.43         -6.781          9.697         -167.4          89.63          38.67          8.589          62.09
    0.2815              -25.98          39.39          77.84          43.43         -6.776          9.696         -167.3          89.63          38.72          8.631          62.12
    0.3016              -25.99          39.38          77.84          43.44         -6.771          9.696         -167.2          89.62          38.77          8.676          62.15
    0.3218               -26.0          39.38          77.84          43.44         -6.765          9.696         -167.1          89.62          38.83          8.725          62.19
    0.3419              -26.01          39.38          77.84          43.45         -6.758          9.696         -167.0          89.61          38.89          8.778          62.23
     0.362              -26.02          39.37          77.84          43.45         -6.751          9.696         -166.9           89.6          38.96          8.837          62.27
    0.3821              -26.03          39.37          77.84          43.46         -6.744          9.696         -166.8           89.6          39.03            8.9          62.32
    0.4022              -26.05          39.37          77.84          43.47         -6.735          9.696         -166.6          89.59          39.11           8.97          62.37
    0.4223              -26.07          39.36          77.83          43.47         -6.726          9.695         -166.5          89.58           39.2          9.048          62.43
    0.4424              -26.08          39.36          77.83          43.48         -6.716          9.695         -166.3          89.57           39.3          9.133          62.49
    0.4625               -26.1          39.35          77.83          43.49         -6.704          9.695         -166.1          89.56          39.41          9.227          62.56
    0.4826              -26.13          39.35          77.83           43.5         -6.692          9.695         -165.9          89.55          39.53          9.332          62.63
    0.5027              -26.15          39.34          77.82          43.52         -6.678          9.694         -165.7          89.54          39.67          9.449          62.72
    0.5229              -26.18          39.33          77.82          43.53         -6.662          9.694         -165.4          89.53          39.82           9.58          62.81
     0.543              -26.21          39.32          77.82          43.55         -6.644          9.694         -165.1          89.51          39.99          9.728          62.92
    0.5631              -26.25          39.31          77.81          43.56         -6.624          9.693         -164.8          89.49          40.19          9.895          63.04
    0.5832              -26.29           39.3          77.81          43.58         -6.602          9.693         -164.4          89.47          40.41          10.08          63.18
    0.6033              -26.34          39.29           77.8           43.6         -6.576          9.692         -164.0          89.45          40.66           10.3          63.34
    0.6234              -26.39          39.27           77.8          43.63         -6.546          9.692         -163.5          89.42          40.94          10.55          63.52
    0.6435              -26.45          39.26          77.79          43.66         -6.512          9.691         -162.9          89.39          41.28          10.83          63.73
    0.6636              -26.53          39.24          77.78          43.69         -6.472           9.69         -162.3          89.36          41.66          11.17          63.97
    0.6837              -26.61          39.22          77.77          43.73         -6.425          9.689         -161.5          89.32          42.11          11.56          64.26
    0.7038              -26.71          39.19          77.76          43.78          -6.37          9.688         -160.6          89.27          42.65          12.01          64.59
     0.724              -26.83          39.16          77.75          43.84         -6.305          9.687         -159.5          89.21          43.28          12.56          64.99
    0.7441              -26.97          39.12          77.73          43.91         -6.226          9.685         -158.2          89.15          44.04          13.21          65.47
    0.7642              -27.14          39.07          77.71          43.99         -6.131          9.684         -156.6          89.06          44.95           14.0          66.05
    0.7843              -27.35          39.02          77.69          44.09         -6.016          9.681         -154.7          88.96          46.07          14.97          66.76
    0.8044              -27.61          38.95          77.66          44.21         -5.873          9.678         -152.3          88.84          47.46          16.16          67.63
    0.8245              -27.93          38.86          77.63          44.36         -5.694          9.675         -149.4          88.68          49.18          17.65          68.71
    0.8446              -28.34          38.75          77.58          44.56          -5.47           9.67         -145.6          88.49          51.35          19.52          70.08
